<svg width="40" height="40" viewBox="0 0 40 40" fill="none" xmlns="http://www.w3.org/2000/svg">
<path d="M9.3542 4C9.99559 4 10.5477 4.51188 10.6704 5.21938L10.7541 6H34.2178C35.3499 6 36.2535 7.26563 35.9356 8.54125L32.9238 20.5438C32.7063 21.4062 32.0036 22 31.206 22H13.5204L14.0335 25H31.2172C31.959 25 32.5557 25.6688 32.5557 26.5C32.5557 27.3312 31.959 28 31.2172 28H12.8735C12.2823 28 11.7301 27.4875 11.6074 26.7812L8.24655 7H5.33855C4.59956 7 4 6.32812 4 5.5C4 4.67188 4.59956 4 5.33855 4H9.3542ZM11.1389 33C11.1389 31.3438 12.338 30 13.816 30C15.294 30 16.4931 31.3438 16.4931 33C16.4931 34.6562 15.294 36 13.816 36C12.338 36 11.1389 34.6562 11.1389 33ZM32.5557 33C32.5557 34.6562 31.3566 36 29.8786 36C28.4006 36 27.2015 34.6562 27.2015 33C27.2015 31.3438 28.4006 30 29.8786 30C31.3566 30 32.5557 31.3438 32.5557 33Z" fill="#272E67"/>
</svg>
