<svg width="40" height="40" viewBox="0 0 40 40" fill="none" xmlns="http://www.w3.org/2000/svg">
<path fill-rule="evenodd" clip-rule="evenodd" d="M4 6.66667C4 5.95942 4.24082 5.28115 4.66947 4.78105C5.09812 4.28095 5.67951 4 6.28571 4H33.7143C34.3205 4 34.9019 4.28095 35.3305 4.78105C35.7592 5.28115 36 5.95942 36 6.66667C36 7.37391 35.7592 8.05219 35.3305 8.55228C34.9019 9.05238 34.3205 9.33333 33.7143 9.33333H6.28571C5.67951 9.33333 5.09812 9.05238 4.66947 8.55228C4.24082 8.05219 4 7.37391 4 6.66667ZM4 20C4 19.2928 4.24082 18.6145 4.66947 18.1144C5.09812 17.6143 5.67951 17.3333 6.28571 17.3333H33.7143C34.3205 17.3333 34.9019 17.6143 35.3305 18.1144C35.7592 18.6145 36 19.2928 36 20C36 20.7072 35.7592 21.3855 35.3305 21.8856C34.9019 22.3857 34.3205 22.6667 33.7143 22.6667H6.28571C5.67951 22.6667 5.09812 22.3857 4.66947 21.8856C4.24082 21.3855 4 20.7072 4 20ZM4 33.3333C4 32.6261 4.24082 31.9478 4.66947 31.4477C5.09812 30.9476 5.67951 30.6667 6.28571 30.6667H33.7143C34.3205 30.6667 34.9019 30.9476 35.3305 31.4477C35.7592 31.9478 36 32.6261 36 33.3333C36 34.0406 35.7592 34.7189 35.3305 35.219C34.9019 35.719 34.3205 36 33.7143 36H6.28571C5.67951 36 5.09812 35.719 4.66947 35.219C4.24082 34.7189 4 34.0406 4 33.3333Z" fill="#FFB3A6"/>
</svg>
