<svg width="40" height="40" viewBox="0 0 40 40" fill="none" xmlns="http://www.w3.org/2000/svg">
<path d="M9.59995 36C8.95995 36 8.39995 35.76 7.91995 35.28C7.43995 34.8 7.19995 34.24 7.19995 33.6V6.4C7.19995 5.76 7.43995 5.2 7.91995 4.72C8.39995 4.24 8.95995 4 9.59995 4H30.4C31.04 4 31.6 4.24 32.08 4.72C32.5599 5.2 32.8 5.76 32.8 6.4V33.6C32.8 34.24 32.5599 34.8 32.08 35.28C31.6 35.76 31.04 36 30.4 36H9.59995ZM9.59995 33.6H30.4V6.4H9.59995V33.6ZM20 31.24C22.16 31.24 23.9933 30.4867 25.5 28.98C27.0066 27.4733 27.76 25.64 27.76 23.48C27.76 21.32 27.0066 19.4867 25.5 17.98C23.9933 16.4733 22.16 15.72 20 15.72C17.84 15.72 16.0066 16.4733 14.5 17.98C12.9933 19.4867 12.24 21.32 12.24 23.48C12.24 25.64 12.9933 27.4733 14.5 28.98C16.0066 30.4867 17.84 31.24 20 31.24ZM20 27.88C19.3866 27.88 18.7933 27.7667 18.22 27.54C17.6466 27.3133 17.1466 27 16.72 26.6L23.08 20.24C23.5333 20.6133 23.8666 21.08 24.08 21.64C24.2933 22.2 24.4 22.8133 24.4 23.48C24.4 24.76 23.9866 25.8133 23.16 26.64C22.3333 27.4667 21.28 27.88 20 27.88ZM12.96 10.88C13.28 10.88 13.56 10.76 13.8 10.52C14.04 10.28 14.16 10 14.16 9.68C14.16 9.36 14.04 9.08 13.8 8.84C13.56 8.6 13.28 8.48 12.96 8.48C12.64 8.48 12.36 8.6 12.12 8.84C11.88 9.08 11.76 9.36 11.76 9.68C11.76 10 11.88 10.28 12.12 10.52C12.36 10.76 12.64 10.88 12.96 10.88ZM18.32 10.88C18.64 10.88 18.92 10.76 19.16 10.52C19.4 10.28 19.52 10 19.52 9.68C19.52 9.36 19.4 9.08 19.16 8.84C18.92 8.6 18.64 8.48 18.32 8.48C18 8.48 17.72 8.6 17.48 8.84C17.24 9.08 17.12 9.36 17.12 9.68C17.12 10 17.24 10.28 17.48 10.52C17.72 10.76 18 10.88 18.32 10.88ZM9.59995 33.6V6.4V33.6Z" fill="#272E67"/>
</svg>
