<svg width="40" height="40" viewBox="0 0 40 40" fill="none" xmlns="http://www.w3.org/2000/svg">
<path d="M4 13.7C4 13.2437 4.10765 12.8 4.3094 12.4187L8.0875 5.33563C8.5325 4.50131 9.28 4 10.085 4H29.915C30.72 4 31.465 4.50131 31.91 5.33563L35.69 12.4187C35.89 12.8 36 13.2437 36 13.7C36 14.9688 35.175 16 34.16 16H5.842C4.825 16 4.00002 14.9688 4.00002 13.7H4ZM7.2 18H10.4V28H20V18H23.2V33C23.2 34.6562 22.125 36 20.8 36H9.6C8.2745 36 7.2 34.6562 7.2 33V18ZM29.6 18H32.8V34C32.8 35.1063 32.085 36 31.2 36C30.315 36 29.6 35.1063 29.6 34V18Z" fill="#272E67"/>
</svg>
