<svg width="40" height="40" viewBox="0 0 40 40" fill="none" xmlns="http://www.w3.org/2000/svg">
<path d="M4 28V26.2333C4 25.3667 4.46111 24.6667 5.38333 24.1333C6.30556 23.6 7.51111 23.3333 9 23.3333C9.26667 23.3333 9.52778 23.3389 9.78333 23.35C10.0389 23.3611 10.2889 23.3889 10.5333 23.4333C10.3556 23.8111 10.2222 24.2 10.1333 24.6C10.0444 25 10 25.4222 10 25.8667V28H4ZM12 28V25.8667C12 24.4222 12.7389 23.25 14.2167 22.35C15.6944 21.45 17.6222 21 20 21C22.4 21 24.3333 21.45 25.8 22.35C27.2667 23.25 28 24.4222 28 25.8667V28H12ZM30 28V25.8667C30 25.4222 29.9556 25 29.8667 24.6C29.7778 24.2 29.6444 23.8111 29.4667 23.4333C29.7111 23.3889 29.9611 23.3611 30.2167 23.35C30.4722 23.3389 30.7333 23.3333 31 23.3333C32.4889 23.3333 33.6944 23.6 34.6167 24.1333C35.5389 24.6667 36 25.3667 36 26.2333V28H30ZM9 22.3333C8.35556 22.3333 7.80556 22.1056 7.35 21.65C6.89444 21.1944 6.66667 20.6444 6.66667 20C6.66667 19.3556 6.89444 18.8056 7.35 18.35C7.80556 17.8944 8.35556 17.6667 9 17.6667C9.64444 17.6667 10.1944 17.8944 10.65 18.35C11.1056 18.8056 11.3333 19.3556 11.3333 20C11.3333 20.6444 11.1056 21.1944 10.65 21.65C10.1944 22.1056 9.64444 22.3333 9 22.3333ZM31 22.3333C30.3556 22.3333 29.8056 22.1056 29.35 21.65C28.8944 21.1944 28.6667 20.6444 28.6667 20C28.6667 19.3556 28.8944 18.8056 29.35 18.35C29.8056 17.8944 30.3556 17.6667 31 17.6667C31.6444 17.6667 32.1944 17.8944 32.65 18.35C33.1056 18.8056 33.3333 19.3556 33.3333 20C33.3333 20.6444 33.1056 21.1944 32.65 21.65C32.1944 22.1056 31.6444 22.3333 31 22.3333ZM20 20C18.8889 20 17.9444 19.6111 17.1667 18.8333C16.3889 18.0556 16 17.1111 16 16C16 14.8889 16.3889 13.9444 17.1667 13.1667C17.9444 12.3889 18.8889 12 20 12C21.1111 12 22.0556 12.3889 22.8333 13.1667C23.6111 13.9444 24 14.8889 24 16C24 17.1111 23.6111 18.0556 22.8333 18.8333C22.0556 19.6111 21.1111 20 20 20Z" fill="#FFB3A6"/>
</svg>
