<svg width="40" height="40" viewBox="0 0 40 40" fill="none" xmlns="http://www.w3.org/2000/svg">
<path d="M17.5861 21.2414C19.0608 21.2503 20.5123 20.7751 21.7994 19.8621H20.3343C20.0118 19.8541 19.7043 19.6881 19.4762 19.3988C19.2482 19.1095 19.1173 18.7194 19.111 18.3103V15.2069C19.1173 14.7978 19.2482 14.4078 19.4762 14.1185C19.7043 13.8292 20.0118 13.6631 20.3343 13.6552H25.2952C25.332 13.3123 25.3511 12.9667 25.3523 12.6207C25.3523 7.85862 21.8756 4 17.5861 4C13.2966 4 9.81982 7.85862 9.81982 12.6207C9.81982 17.3828 13.2966 21.2414 17.5861 21.2414Z" fill="#FFB3A6"/>
<path d="M17.9232 32.8931V29.5172C17.9232 29.2864 17.9368 29.0558 17.964 28.8276L18.7795 21.9931H14.5144C8.70812 21.9931 4 27.2172 4 33.662C4 34.9517 4.94054 36 6.10126 36H20.3751C20.0532 36.0009 19.7342 35.9212 19.4366 35.7654C19.139 35.6096 18.8685 35.3809 18.6407 35.0922C18.4129 34.8036 18.2323 34.4608 18.1092 34.0834C17.986 33.706 17.9228 33.3015 17.9232 32.8931Z" fill="#FFB3A6"/>
<path d="M28.3942 13.9276C28.6825 13.9276 28.9591 14.0729 29.163 14.3316C29.3669 14.5902 29.4815 14.9411 29.4815 15.3069V18.0655C29.4815 18.4313 29.3669 18.7822 29.163 19.0408C28.9591 19.2995 28.6825 19.4448 28.3942 19.4448H25.6759V20.8241H33.0153C33.5398 20.8166 34.0487 21.0498 34.4483 21.4807C34.8479 21.9116 35.1113 22.5112 35.19 23.169L35.962 29.6207C35.9869 29.8249 35.9996 30.0313 36 30.2379V33.2379C36 33.9696 35.7709 34.6712 35.3631 35.1886C34.9552 35.7059 34.4021 35.9965 33.8254 35.9965H20.7775C20.2007 35.9965 19.6476 35.7059 19.2397 35.1886C18.8319 34.6712 18.6028 33.9696 18.6028 33.2379V30.2379C18.6023 30.0313 18.6141 29.825 18.6381 29.6207L19.4074 23.169C19.4855 22.5165 19.7453 21.9211 20.1398 21.4909C20.5343 21.0606 21.0374 20.8241 21.5576 20.8241H23.4604V19.4448H20.7421C20.4555 19.4378 20.1821 19.2902 19.9794 19.033C19.7767 18.7759 19.6604 18.4291 19.6548 18.0655V15.3069C19.6604 14.9433 19.7767 14.5965 19.9794 14.3394C20.1821 14.0822 20.4555 13.9346 20.7421 13.9276H28.3942ZM21.8702 15.9965C21.726 15.9965 21.5877 16.0692 21.4858 16.1985C21.3838 16.3279 21.3266 16.5033 21.3266 16.6862C21.3266 16.8691 21.3838 17.0445 21.4858 17.1739C21.5877 17.3032 21.726 17.3759 21.8702 17.3759H27.3068C27.451 17.3759 27.5893 17.3032 27.6913 17.1739C27.7932 17.0445 27.8505 16.8691 27.8505 16.6862C27.8505 16.5033 27.7932 16.3279 27.6913 16.1985C27.5893 16.0692 27.451 15.9965 27.3068 15.9965H21.8702ZM21.3266 33.2379H33.2871C33.4313 33.2379 33.5696 33.1653 33.6716 33.0359C33.7735 32.9066 33.8308 32.7312 33.8308 32.5483C33.8308 32.3654 33.7735 32.1899 33.6716 32.0606C33.5696 31.9313 33.4313 31.8586 33.2871 31.8586H21.3266C21.1824 31.8586 21.0441 31.9313 20.9421 32.0606C20.8402 32.1899 20.7829 32.3654 20.7829 32.5483C20.7829 32.7312 20.8402 32.9066 20.9421 33.0359C21.0441 33.1653 21.1824 33.2379 21.3266 33.2379ZM22.4139 23.2379C22.2526 23.2379 22.0949 23.2986 21.9608 23.4123C21.8267 23.5259 21.7222 23.6875 21.6605 23.8765C21.5987 24.0656 21.5826 24.2736 21.6141 24.4742C21.6455 24.6749 21.7232 24.8592 21.8372 25.0039C21.9513 25.1486 22.0966 25.2471 22.2548 25.287C22.413 25.3269 22.5769 25.3064 22.726 25.2281C22.875 25.1498 23.0023 25.0173 23.0919 24.8471C23.1815 24.677 23.2294 24.477 23.2294 24.2724C23.2294 23.998 23.1435 23.7349 22.9905 23.5409C22.8376 23.3469 22.6302 23.2379 22.4139 23.2379ZM25.6759 25.3069C25.8371 25.3069 25.9948 25.2462 26.1289 25.1325C26.263 25.0189 26.3675 24.8573 26.4293 24.6683C26.491 24.4793 26.5071 24.2713 26.4757 24.0706C26.4442 23.8699 26.3665 23.6856 26.2525 23.5409C26.1384 23.3962 25.9931 23.2977 25.8349 23.2578C25.6768 23.2179 25.5128 23.2384 25.3638 23.3167C25.2148 23.395 25.0874 23.5276 24.9978 23.6977C24.9082 23.8678 24.8604 24.0678 24.8604 24.2724C24.8604 24.5468 24.9463 24.8099 25.0992 25.0039C25.2521 25.1979 25.4596 25.3069 25.6759 25.3069ZM24.0449 26.6862C23.8836 26.6862 23.7259 26.7469 23.5918 26.8605C23.4577 26.9742 23.3532 27.1358 23.2914 27.3248C23.2297 27.5138 23.2136 27.7218 23.245 27.9225C23.2765 28.1232 23.3542 28.3075 23.4682 28.4522C23.5823 28.5968 23.7276 28.6954 23.8858 28.7353C24.044 28.7752 24.2079 28.7547 24.3569 28.6764C24.506 28.5981 24.6333 28.4655 24.7229 28.2954C24.8125 28.1253 24.8604 27.9253 24.8604 27.7207C24.8604 27.4463 24.7744 27.1832 24.6215 26.9892C24.4686 26.7952 24.2611 26.6862 24.0449 26.6862ZM28.9378 25.3069C29.0991 25.3069 29.2568 25.2462 29.3909 25.1325C29.525 25.0189 29.6295 24.8573 29.6912 24.6683C29.753 24.4793 29.7691 24.2713 29.7377 24.0706C29.7062 23.8699 29.6285 23.6856 29.5145 23.5409C29.4004 23.3962 29.2551 23.2977 29.0969 23.2578C28.9387 23.2179 28.7748 23.2384 28.6258 23.3167C28.4767 23.395 28.3494 23.5276 28.2598 23.6977C28.1702 23.8678 28.1223 24.0678 28.1223 24.2724C28.1223 24.5468 28.2083 24.8099 28.3612 25.0039C28.5141 25.1979 28.7215 25.3069 28.9378 25.3069ZM27.3068 26.6862C27.1456 26.6862 26.9879 26.7469 26.8538 26.8605C26.7197 26.9742 26.6151 27.1358 26.5534 27.3248C26.4917 27.5138 26.4756 27.7218 26.507 27.9225C26.5385 28.1232 26.6162 28.3075 26.7302 28.4522C26.8442 28.5968 26.9896 28.6954 27.1477 28.7353C27.3059 28.7752 27.4699 28.7547 27.6189 28.6764C27.7679 28.5981 27.8953 28.4655 27.9849 28.2954C28.0745 28.1253 28.1223 27.9253 28.1223 27.7207C28.1223 27.4463 28.0364 27.1832 27.8835 26.9892C27.7306 26.7952 27.5231 26.6862 27.3068 26.6862ZM32.1998 25.3069C32.3611 25.3069 32.5188 25.2462 32.6529 25.1325C32.787 25.0189 32.8915 24.8573 32.9532 24.6683C33.0149 24.4793 33.0311 24.2713 32.9996 24.0706C32.9682 23.8699 32.8905 23.6856 32.7765 23.5409C32.6624 23.3962 32.5171 23.2977 32.3589 23.2578C32.2007 23.2179 32.0367 23.2384 31.8877 23.3167C31.7387 23.395 31.6114 23.5276 31.5218 23.6977C31.4321 23.8678 31.3843 24.0678 31.3843 24.2724C31.3843 24.5468 31.4702 24.8099 31.6232 25.0039C31.7761 25.1979 31.9835 25.3069 32.1998 25.3069ZM30.5688 26.6862C30.4075 26.6862 30.2499 26.7469 30.1158 26.8605C29.9817 26.9742 29.8771 27.1358 29.8154 27.3248C29.7537 27.5138 29.7375 27.7218 29.769 27.9225C29.8005 28.1232 29.8781 28.3075 29.9922 28.4522C30.1062 28.5968 30.2515 28.6954 30.4097 28.7353C30.5679 28.7752 30.7319 28.7547 30.8809 28.6764C31.0299 28.5981 31.1573 28.4655 31.2469 28.2954C31.3365 28.1253 31.3843 27.9253 31.3843 27.7207C31.3843 27.4463 31.2984 27.1832 31.1455 26.9892C30.9925 26.7952 30.7851 26.6862 30.5688 26.6862Z" fill="#FFB3A6"/>
</svg>
