<svg width="32" height="32" viewBox="0 0 32 32" fill="none" xmlns="http://www.w3.org/2000/svg">
<path d="M26.5333 27.9667L17.7667 19.2C17.1 19.7778 16.3222 20.2278 15.4333 20.55C14.5444 20.8722 13.6 21.0333 12.6 21.0333C10.2 21.0333 8.16667 20.2 6.5 18.5333C4.83333 16.8667 4 14.8556 4 12.5C4 10.1445 4.83333 8.13334 6.5 6.46667C8.16667 4.80001 10.1889 3.96667 12.5667 3.96667C14.9222 3.96667 16.9278 4.80001 18.5833 6.46667C20.2389 8.13334 21.0667 10.1445 21.0667 12.5C21.0667 13.4556 20.9111 14.3778 20.6 15.2667C20.2889 16.1556 19.8222 16.9889 19.2 17.7667L28 26.5L26.5333 27.9667ZM12.5667 19.0333C14.3667 19.0333 15.9 18.3945 17.1667 17.1167C18.4333 15.8389 19.0667 14.3 19.0667 12.5C19.0667 10.7 18.4333 9.16112 17.1667 7.88334C15.9 6.60556 14.3667 5.96667 12.5667 5.96667C10.7444 5.96667 9.19444 6.60556 7.91667 7.88334C6.63889 9.16112 6 10.7 6 12.5C6 14.3 6.63889 15.8389 7.91667 17.1167C9.19444 18.3945 10.7444 19.0333 12.5667 19.0333Z" fill="#CED4DA"/>
</svg>
