<svg width="40" height="40" viewBox="0 0 40 40" fill="none" xmlns="http://www.w3.org/2000/svg">
<path d="M33.7001 21.4125C34.3945 20.6313 34.3945 19.3625 33.7001 18.5813L26.5889 10.5813C25.8945 9.8 24.7667 9.8 24.0723 10.5813C23.3778 11.3625 23.3778 12.6313 24.0723 13.4125L28.1501 18H16.4445C15.4612 18 14.6667 18.8937 14.6667 20C14.6667 21.1063 15.4612 22 16.4445 22H28.1501L24.0723 26.5875C23.3778 27.3687 23.3778 28.6375 24.0723 29.4188C24.7667 30.2 25.8945 30.2 26.5889 29.4188L33.7001 21.4188V21.4125ZM14.6667 10C15.6501 10 16.4445 9.10625 16.4445 8C16.4445 6.89375 15.6501 6 14.6667 6H11.1112C8.16672 6 5.77783 8.6875 5.77783 12V28C5.77783 31.3125 8.16672 34 11.1112 34H14.6667C15.6501 34 16.4445 33.1063 16.4445 32C16.4445 30.8937 15.6501 30 14.6667 30H11.1112C10.1278 30 9.33339 29.1063 9.33339 28V12C9.33339 10.8937 10.1278 10 11.1112 10H14.6667Z" fill="#FFB3A6"/>
</svg>
