<svg width="40" height="40" viewBox="0 0 40 40" fill="none" xmlns="http://www.w3.org/2000/svg">
<path d="M29.1429 12C29.1429 16.4187 25.05 20 20 20C14.95 20 10.8571 16.4187 10.8571 12C10.8571 7.58187 14.95 4 20 4C25.05 4 29.1429 7.58187 29.1429 12ZM18.9357 26.45L16.5714 23H23.4286L21.0643 26.45L23.4429 34.1938L26.2643 24.1187C31.7786 24.8687 36 29.0437 36 34.0812C36 35.1375 35.0143 36 33.8071 36H6.19429C4.98214 36 4 35.1375 4 34.0812C4 29.0437 8.22071 24.8687 13.7357 24.1187L16.5571 34.1938L18.9357 26.45Z" fill="#272E67"/>
</svg>
