<svg width="24" height="24" viewBox="0 0 24 24" fill="none" xmlns="http://www.w3.org/2000/svg">
<path d="M3.79121 21.6C3.42019 21.6 3.09555 21.4611 2.81729 21.1831C2.53903 20.9052 2.3999 20.581 2.3999 20.2104V6.31414C2.3999 5.94357 2.53903 5.61933 2.81729 5.3414C3.09555 5.06347 3.42019 4.92451 3.79121 4.92451H13.1825L11.7912 6.31414H3.79121V20.2104H17.7043V12.1506L19.0956 10.7609V20.2104C19.0956 20.581 18.9564 20.9052 18.6782 21.1831C18.3999 21.4611 18.0753 21.6 17.7043 21.6H3.79121ZM14.968 5.1098L15.9651 6.08253L9.35642 12.6601V14.6519H11.3274L17.9593 8.02801L18.9332 9.00075L11.9071 16.0415H7.96512V12.1042L14.968 5.1098ZM18.9332 9.00075L14.968 5.1098L17.2869 2.79375C17.5497 2.53127 17.8782 2.40002 18.2724 2.40002C18.6666 2.40002 18.9951 2.53899 19.2579 2.81691L21.2057 4.78555C21.4685 5.06347 21.5999 5.39158 21.5999 5.76987C21.5999 6.14816 21.4608 6.46854 21.1825 6.73103L18.9332 9.00075Z" fill="white"/>
</svg>
