<svg width="201" height="48" viewBox="0 0 201 48" fill="none" xmlns="http://www.w3.org/2000/svg">
<g clip-path="url(#clip0_9_3)">
<path d="M23.9985 1.93456e-07C19.252 1.93456e-07 14.6122 1.40749 10.6656 4.04447C6.71912 6.68146 3.64317 10.4295 1.82679 14.8147C0.0103983 19.1998 -0.464852 24.0251 0.461135 28.6803C1.38712 33.3356 3.67275 37.6117 7.029 40.968C10.3852 44.3242 14.6614 46.6098 19.3166 47.5358C23.9719 48.4618 28.7972 47.9866 33.1823 46.1702C37.5675 44.3538 41.3155 41.2778 43.9525 37.3313C46.5895 33.3848 47.997 28.7449 47.997 23.9985C47.9974 20.8468 47.3769 17.726 46.171 14.8142C44.9651 11.9024 43.1974 9.25664 40.9689 7.0281C38.7403 4.79955 36.0946 3.03185 33.1828 1.82596C30.271 0.620066 27.1501 -0.000399989 23.9985 1.93456e-07ZM23.9985 44.2252C19.998 44.2252 16.0874 43.0389 12.7611 40.8164C9.43486 38.5938 6.84235 35.4349 5.31143 31.7389C3.78052 28.043 3.37996 23.976 4.16042 20.0524C4.94087 16.1288 6.86728 12.5248 9.69603 9.69602C12.5248 6.86727 16.1288 4.94086 20.0524 4.16041C23.976 3.37995 28.043 3.78051 31.7389 5.31142C35.4349 6.84233 38.5938 9.43484 40.8164 12.7611C43.0389 16.0874 44.2252 19.998 44.2252 23.9985C44.2252 29.3629 42.0942 34.5077 38.3009 38.3009C34.5077 42.0942 29.3629 44.2252 23.9985 44.2252Z" fill="#272E67"/>
<path d="M42.1809 23.9985C42.1812 26.746 41.5588 29.458 40.3604 31.9305C39.1621 34.403 37.419 36.5717 35.2621 38.2738C33.1052 39.9759 30.5906 41.167 27.9073 41.7576C25.2239 42.3483 22.4416 42.3232 19.7694 41.6841C17.0972 41.045 14.6045 39.8087 12.4787 38.0679C10.353 36.3271 8.64933 34.1272 7.49587 31.6335C6.34241 29.1398 5.76911 26.417 5.81904 23.6699C5.86898 20.9228 6.54085 18.2227 7.78418 15.7725C8.62201 14.1273 11.1355 9.63655 13.3626 9.74928C14.3741 9.80107 14.9347 11.0776 14.6544 12.0495C14.3741 13.0214 13.5667 13.7282 12.8081 14.3985C11.0928 15.9218 9.38976 17.6401 8.79871 19.852C8.61514 20.3759 8.63361 20.9495 8.85051 21.4606C9.10642 21.945 9.80106 22.2192 10.2337 21.881C10.2442 20.8969 10.4428 19.9238 10.8186 19.0141C11.0593 18.3322 11.4934 17.7351 12.0678 17.2958C12.3555 17.0828 12.6986 16.9574 13.0558 16.9347C13.4131 16.912 13.7693 16.993 14.0816 17.1679C14.9286 17.7163 14.9682 18.9959 14.5325 19.8946C14.0968 20.7934 13.3139 21.4941 12.7319 22.3319C11.4158 24.1874 11.2086 26.8562 12.4913 28.7299C13.7739 30.6036 16.5372 31.4018 18.4901 30.238C19.2 29.8145 19.7636 29.193 20.4004 28.6659C21.6598 27.6373 23.194 27.0016 24.8119 26.8379C25.3445 26.7658 25.8861 26.8 26.4053 26.9385C26.9277 27.1355 27.4231 27.3975 27.8799 27.7184C29.7871 28.8731 32.0172 29.586 34.2443 29.4276C36.4714 29.2692 38.6772 28.1754 39.9294 26.3231C41.0597 24.6444 41.34 22.5361 41.3644 20.5101C41.3644 20.574 41.9524 21.3936 42.0224 21.6465C42.2266 22.3685 42.1809 23.2581 42.1809 23.9985Z" fill="#272E67"/>
<path d="M42.1809 23.9985C42.1812 26.746 41.5588 29.458 40.3604 31.9305C39.1621 34.403 37.419 36.5717 35.2621 38.2738C33.1052 39.9759 30.5906 41.167 27.9073 41.7576C25.2239 42.3483 22.4416 42.3232 19.7694 41.6841C17.0972 41.045 14.6045 39.8087 12.4787 38.0679C10.353 36.3271 8.64933 34.1272 7.49587 31.6335C6.34241 29.1398 5.76911 26.417 5.81904 23.6699C5.86898 20.9228 6.54085 18.2227 7.78418 15.7725C8.62201 14.1273 11.1355 9.63655 13.3626 9.74928C14.3741 9.80107 14.9347 11.0776 14.6544 12.0495C14.3741 13.0214 13.5667 13.7282 12.8081 14.3985C11.0928 15.9218 9.38976 17.6401 8.79871 19.852C8.61514 20.3759 8.63361 20.9495 8.85051 21.4606C9.10642 21.945 9.80106 22.2192 10.2337 21.881C10.2442 20.8969 10.4428 19.9238 10.8186 19.0141C11.0593 18.3322 11.4934 17.7351 12.0678 17.2958C12.3555 17.0828 12.6986 16.9574 13.0558 16.9347C13.4131 16.912 13.7693 16.993 14.0816 17.1679C14.9286 17.7163 14.9682 18.9959 14.5325 19.8946C14.0968 20.7934 13.3139 21.4941 12.7319 22.3319C11.4158 24.1874 11.2086 26.8562 12.4913 28.7299C13.7739 30.6036 16.5372 31.4018 18.4901 30.238C19.2 29.8145 19.7636 29.193 20.4004 28.6659C21.6598 27.6373 23.194 27.0016 24.8119 26.8379C25.3445 26.7658 25.8861 26.8 26.4053 26.9385C26.9277 27.1355 27.4231 27.3975 27.8799 27.7184C29.7871 28.8731 32.0172 29.586 34.2443 29.4276C36.4714 29.2692 38.6772 28.1754 39.9294 26.3231C41.0597 24.6444 41.34 22.5361 41.3644 20.5101C41.3644 20.574 41.9524 21.3936 42.0224 21.6465C42.2266 22.3685 42.1809 23.2581 42.1809 23.9985Z" fill="#272E67"/>
<path d="M13.7252 15.2485C13.9984 15.2904 14.2675 15.3556 14.5295 15.4435C15.2242 15.6781 17.0004 17.8564 17.3233 19.6783C18.0702 19.1051 18.7544 18.4546 19.3646 17.7376C19.3402 20.3821 20.7021 23.0266 20.0318 25.5858C19.8338 26.3413 19.4651 27.0451 19.2488 27.7946C19.13 28.2102 19.0544 28.637 19.0233 29.0681C19.5017 28.6934 19.9373 28.2546 20.4004 27.8677C21.6601 26.8393 23.1941 26.2037 24.812 26.0397C25.3439 25.963 25.8858 25.9941 26.4054 26.1311C26.9283 26.3269 27.4239 26.589 27.88 26.9111C29.6871 28.0683 31.794 28.67 33.9398 28.6416C33.8762 27.7019 33.914 26.7581 34.0525 25.8265C34.2962 24.035 34.9939 22.3898 35.3504 20.6471C35.4143 20.3425 35.7099 17.9052 35.4204 17.6492C35.9576 18.1042 36.3847 18.6751 36.6696 19.3188C36.7305 19.465 36.8463 19.6418 36.9925 19.59C37.9065 18.2616 39.2379 17.3111 40.551 16.3879C40.8831 16.1564 37.093 11.7235 36.6726 11.2726C36.2184 10.7905 35.6702 10.4066 35.0618 10.1446C34.4534 9.88257 33.7978 9.74803 33.1354 9.74928H30.8748C30.8748 11.3823 29.3698 12.7045 27.5235 12.7045C25.6772 12.7045 24.1722 11.3823 24.1722 9.74928H21.8659C20.2877 9.74928 18.8741 10.6237 17.7346 11.6412C17.5157 11.8145 17.2857 11.9732 17.0461 12.1165C16.5738 12.5613 16.0925 12.9696 15.6385 13.4327C15.1846 13.8958 14.6819 14.4289 14.1548 14.8798C14.0147 15.0078 13.8684 15.1266 13.7252 15.2485Z" fill="#272E67"/>
<path d="M27.3071 30.5701C27.0762 30.5701 26.8505 30.6386 26.6585 30.767C26.4666 30.8953 26.317 31.0777 26.2288 31.2911C26.1406 31.5045 26.1176 31.7393 26.1629 31.9657C26.2082 32.1922 26.3196 32.4001 26.4831 32.5631C26.6466 32.7262 26.8548 32.8371 27.0814 32.8818C27.3079 32.9265 27.5426 32.9029 27.7558 32.8141C27.9689 32.7254 28.151 32.5753 28.2788 32.383C28.4067 32.1907 28.4746 31.9648 28.474 31.7339C28.474 31.5808 28.4438 31.4292 28.3851 31.2878C28.3264 31.1464 28.2404 31.018 28.132 30.9099C28.0236 30.8018 27.895 30.7161 27.7534 30.6578C27.6119 30.5995 27.4602 30.5697 27.3071 30.5701ZM27.3071 32.7515H27.234C27.4895 32.7317 27.7281 32.6162 27.9022 32.4281C28.0762 32.2401 28.1729 31.9932 28.1729 31.737C28.1729 31.4807 28.0762 31.2339 27.9022 31.0458C27.7281 30.8577 27.4895 30.7423 27.234 30.7224H27.3071C27.577 30.7224 27.8358 30.8296 28.0267 31.0205C28.2175 31.2113 28.3247 31.4701 28.3247 31.74C28.3247 32.0099 28.2175 32.2687 28.0267 32.4596C27.8358 32.6504 27.577 32.7576 27.3071 32.7576V32.7515Z" fill="#272E67"/>
<path d="M23.1393 28.2394C22.9082 28.2388 22.6822 28.3068 22.4899 28.4348C22.2975 28.5628 22.1475 28.745 22.0588 28.9583C21.9701 29.1717 21.9467 29.4065 21.9916 29.6332C22.0366 29.8598 22.1478 30.068 22.3111 30.2314C22.4745 30.3948 22.6827 30.5059 22.9093 30.5509C23.136 30.5958 23.3708 30.5724 23.5842 30.4837C23.7975 30.395 23.9797 30.245 24.1077 30.0527C24.2357 29.8603 24.3037 29.6343 24.3031 29.4032C24.3031 29.0946 24.1805 28.7985 23.9622 28.5803C23.744 28.362 23.4479 28.2394 23.1393 28.2394ZM23.1393 30.4208H23.0662C23.3216 30.401 23.5603 30.2855 23.7343 30.0974C23.9084 29.9094 24.005 29.6625 24.005 29.4063C24.005 29.15 23.9084 28.9032 23.7343 28.7151C23.5603 28.527 23.3216 28.4116 23.0662 28.3917H23.1393C23.4092 28.3917 23.668 28.499 23.8588 28.6898C24.0496 28.8806 24.1569 29.1395 24.1569 29.4093C24.1569 29.6792 24.0496 29.938 23.8588 30.1289C23.668 30.3197 23.4092 30.4269 23.1393 30.4269V30.4208Z" fill="#272E67"/>
<path d="M10.0845 27.0725C9.85369 27.0725 9.62808 27.141 9.43619 27.2692C9.2443 27.3974 9.09474 27.5797 9.00643 27.7929C8.91811 28.0061 8.895 28.2407 8.94002 28.4671C8.98505 28.6934 9.09618 28.9013 9.25937 29.0645C9.42256 29.2277 9.63048 29.3388 9.85683 29.3839C10.0832 29.4289 10.3178 29.4058 10.531 29.3175C10.7442 29.2291 10.9265 29.0796 11.0547 28.8877C11.1829 28.6958 11.2513 28.4702 11.2513 28.2394C11.2513 27.9299 11.1284 27.6331 10.9096 27.4143C10.6907 27.1955 10.3939 27.0725 10.0845 27.0725ZM10.0845 29.2539H10.0114C10.2668 29.2341 10.5055 29.1186 10.6795 28.9306C10.8536 28.7425 10.9502 28.4957 10.9502 28.2394C10.9502 27.9831 10.8536 27.7363 10.6795 27.5482C10.5055 27.3602 10.2668 27.2447 10.0114 27.2249H10.0845C10.2226 27.2173 10.3608 27.238 10.4906 27.2856C10.6205 27.3333 10.7393 27.4069 10.8397 27.502C10.9402 27.5971 11.0202 27.7116 11.0748 27.8387C11.1295 27.9657 11.1577 28.1026 11.1577 28.2409C11.1577 28.3793 11.1295 28.5161 11.0748 28.6432C11.0202 28.7702 10.9402 28.8848 10.8397 28.9799C10.7393 29.075 10.6205 29.1486 10.4906 29.1962C10.3608 29.2439 10.2226 29.2646 10.0845 29.257V29.2539Z" fill="#272E67"/>
<path d="M31.8863 31.7096C31.7055 31.7096 31.5288 31.7632 31.3785 31.8636C31.2282 31.964 31.111 32.1068 31.0419 32.2738C30.9727 32.4408 30.9546 32.6246 30.9899 32.8019C31.0251 32.9792 31.1122 33.142 31.24 33.2699C31.3678 33.3977 31.5307 33.4847 31.708 33.52C31.8853 33.5553 32.069 33.5372 32.2361 33.468C32.4031 33.3988 32.5458 33.2817 32.6462 33.1313C32.7467 32.981 32.8003 32.8043 32.8003 32.6236C32.8003 32.3812 32.704 32.1487 32.5326 31.9773C32.3612 31.8059 32.1287 31.7096 31.8863 31.7096ZM31.8863 33.4096H31.8284C32.0296 33.3971 32.2185 33.3084 32.3565 33.1615C32.4946 33.0146 32.5714 32.8206 32.5714 32.619C32.5714 32.4174 32.4946 32.2234 32.3565 32.0765C32.2185 31.9296 32.0296 31.8409 31.8284 31.8284H31.8863C32.0964 31.8284 32.2979 31.9118 32.4464 32.0604C32.595 32.2089 32.6784 32.4104 32.6784 32.6205C32.6784 32.8306 32.595 33.0321 32.4464 33.1806C32.2979 33.3292 32.0964 33.4126 31.8863 33.4126V33.4096Z" fill="#272E67"/>
<path d="M35.2711 27.3315C35.0903 27.3315 34.9136 27.3851 34.7633 27.4855C34.613 27.586 34.4958 27.7287 34.4266 27.8957C34.3575 28.0627 34.3394 28.2465 34.3746 28.4238C34.4099 28.6011 34.4969 28.764 34.6248 28.8918C34.7526 29.0196 34.9154 29.1067 35.0927 29.1419C35.27 29.1772 35.4538 29.1591 35.6208 29.0899C35.7878 29.0208 35.9306 28.9036 36.031 28.7533C36.1314 28.603 36.185 28.4263 36.185 28.2455C36.185 28.0031 36.0888 27.7706 35.9173 27.5992C35.7459 27.4278 35.5135 27.3315 35.2711 27.3315ZM35.2711 29.0315H35.2132C35.4144 29.019 35.6032 28.9303 35.7413 28.7834C35.8793 28.6365 35.9562 28.4425 35.9562 28.2409C35.9562 28.0394 35.8793 27.8453 35.7413 27.6985C35.6032 27.5516 35.4144 27.4628 35.2132 27.4503H35.2711C35.473 27.4629 35.6627 27.5519 35.8013 27.6994C35.9399 27.8468 36.017 28.0416 36.017 28.244C36.017 28.4464 35.9399 28.6411 35.8013 28.7886C35.6627 28.9361 35.473 29.0251 35.2711 29.0376V29.0315Z" fill="#272E67"/>
<path d="M15.9553 22.1705C15.7745 22.1705 15.5978 22.2241 15.4475 22.3245C15.2972 22.4249 15.18 22.5677 15.1108 22.7347C15.0417 22.9017 15.0236 23.0855 15.0588 23.2628C15.0941 23.4401 15.1811 23.6029 15.309 23.7308C15.4368 23.8586 15.5996 23.9456 15.7769 23.9809C15.9542 24.0162 16.138 23.9981 16.305 23.9289C16.472 23.8597 16.6148 23.7426 16.7152 23.5923C16.8156 23.4419 16.8693 23.2652 16.8693 23.0845C16.8693 22.8421 16.773 22.6096 16.6015 22.4382C16.4301 22.2668 16.1977 22.1705 15.9553 22.1705ZM15.9553 23.8705H15.8974C16.0947 23.8531 16.2783 23.7625 16.4121 23.6164C16.5459 23.4704 16.6201 23.2795 16.6201 23.0814C16.6201 22.8833 16.5459 22.6925 16.4121 22.5464C16.2783 22.4003 16.0947 22.3097 15.8974 22.2923H15.9553C16.1653 22.2923 16.3668 22.3758 16.5154 22.5243C16.6639 22.6729 16.7474 22.8744 16.7474 23.0845C16.7474 23.2946 16.6639 23.496 16.5154 23.6446C16.3668 23.7931 16.1653 23.8766 15.9553 23.8766V23.8705Z" fill="#272E67"/>
<path d="M15.6445 24.6809C15.2108 24.6815 14.787 24.8107 14.4267 25.0521C14.0663 25.2935 13.7856 25.6363 13.6201 26.0372C13.4545 26.438 13.4115 26.879 13.4965 27.3043C13.5815 27.7296 13.7906 28.1202 14.0975 28.4267C14.4044 28.7331 14.7953 28.9418 15.2207 29.0262C15.6462 29.1106 16.0871 29.0669 16.4877 28.9008C16.8884 28.7347 17.2308 28.4535 17.4717 28.0929C17.7126 27.7322 17.8412 27.3082 17.8412 26.8745C17.8412 26.5862 17.7843 26.3007 17.6739 26.0343C17.5635 25.768 17.4016 25.5261 17.1976 25.3223C16.9936 25.1186 16.7514 24.9571 16.4849 24.847C16.2184 24.737 15.9328 24.6805 15.6445 24.6809ZM15.6445 28.7908H15.5074C15.9877 28.7525 16.4359 28.5346 16.7627 28.1805C17.0896 27.8265 17.2711 27.3624 17.2711 26.8806C17.2711 26.3988 17.0896 25.9346 16.7627 25.5806C16.4359 25.2266 15.9877 25.0087 15.5074 24.9703H15.6445C16.1528 24.9703 16.6402 25.1722 16.9996 25.5316C17.359 25.891 17.5609 26.3784 17.5609 26.8867C17.5609 27.3949 17.359 27.8824 16.9996 28.2417C16.6402 28.6011 16.1528 28.803 15.6445 28.803V28.7908Z" fill="#272E67"/>
<path d="M19.8642 32.8094C19.5681 32.8088 19.2784 32.8961 19.032 33.0602C18.7855 33.2244 18.5933 33.458 18.4797 33.7314C18.3661 34.0049 18.3362 34.3059 18.3938 34.5964C18.4515 34.8868 18.594 35.1537 18.8034 35.3631C19.0128 35.5724 19.2796 35.715 19.5701 35.7726C19.8605 35.8302 20.1615 35.8003 20.435 35.6867C20.7085 35.5731 20.9421 35.3809 21.1062 35.1345C21.2703 34.888 21.3576 34.5984 21.357 34.3023C21.357 33.9063 21.1998 33.5266 20.9198 33.2466C20.6398 32.9667 20.2601 32.8094 19.8642 32.8094ZM19.8642 35.6062H19.7667C20.0963 35.5836 20.4051 35.4368 20.6306 35.1953C20.8561 34.9538 20.9816 34.6357 20.9816 34.3053C20.9816 33.9749 20.8561 33.6568 20.6306 33.4153C20.4051 33.1738 20.0963 33.0269 19.7667 33.0044H19.8642C20.21 33.0044 20.5417 33.1418 20.7862 33.3863C21.0308 33.6308 21.1682 33.9625 21.1682 34.3083C21.1682 34.6542 21.0308 34.9858 20.7862 35.2304C20.5417 35.4749 20.21 35.6123 19.8642 35.6123V35.6062Z" fill="#272E67"/>
<path d="M12.7441 17.9052C12.4486 17.907 12.1603 17.9962 11.9155 18.1617C11.6707 18.3272 11.4804 18.5614 11.3686 18.8349C11.2568 19.1084 11.2284 19.4089 11.2872 19.6985C11.3459 19.988 11.4891 20.2537 11.6987 20.462C11.9083 20.6703 12.1748 20.8119 12.4647 20.8689C12.7547 20.9259 13.055 20.8957 13.3278 20.7822C13.6006 20.6687 13.8337 20.477 13.9977 20.2312C14.1616 19.9854 14.2491 19.6965 14.2491 19.4011C14.2495 19.2037 14.2108 19.0083 14.1352 18.826C14.0596 18.6437 13.9486 18.4783 13.8087 18.3392C13.6687 18.2001 13.5026 18.0901 13.3198 18.0156C13.1371 17.9411 12.9414 17.9036 12.7441 17.9052ZM12.7441 20.702H12.6496C12.9793 20.6794 13.2881 20.5326 13.5136 20.2911C13.7391 20.0496 13.8645 19.7315 13.8645 19.4011C13.8645 19.0707 13.7391 18.7526 13.5136 18.5111C13.2881 18.2696 12.9793 18.1227 12.6496 18.1002H12.7441C13.0899 18.1002 13.4216 18.2375 13.6661 18.4821C13.9107 18.7266 14.0481 19.0583 14.0481 19.4041C14.0481 19.75 13.9107 20.0816 13.6661 20.3262C13.4216 20.5707 13.0899 20.7081 12.7441 20.7081V20.702Z" fill="#272E67"/>
<path d="M37.0991 23.9985C36.8031 23.9979 36.5135 24.0851 36.2671 24.2491C36.0207 24.4131 35.8285 24.6465 35.7148 24.9198C35.6012 25.1931 35.5711 25.494 35.6285 25.7843C35.6858 26.0747 35.8281 26.3416 36.0372 26.5511C36.2462 26.7606 36.5128 26.9034 36.803 26.9613C37.0933 27.0193 37.3942 26.9898 37.6678 26.8767C37.9413 26.7636 38.1751 26.5718 38.3396 26.3258C38.5041 26.0797 38.5919 25.7904 38.5919 25.4944C38.5919 25.0982 38.4347 24.7181 38.1548 24.4377C37.875 24.1572 37.4953 23.9993 37.0991 23.9985ZM37.0991 26.7984H37.0016C37.3274 26.771 37.631 26.6223 37.8523 26.3816C38.0736 26.1409 38.1964 25.8259 38.1964 25.499C38.1964 25.172 38.0736 24.857 37.8523 24.6163C37.631 24.3757 37.3274 24.2269 37.0016 24.1996H37.0991C37.4344 24.2158 37.7506 24.3604 37.9822 24.6034C38.2138 24.8465 38.343 25.1693 38.343 25.505C38.343 25.8408 38.2138 26.1636 37.9822 26.4067C37.7506 26.6497 37.4344 26.7943 37.0991 26.8105V26.7984Z" fill="#272E67"/>
</g>
<path d="M66.272 14.016C64.6507 14.5493 63.392 15.4347 62.496 16.672C61.6213 17.888 61.184 19.4027 61.184 21.216C61.184 22.0267 61.2587 22.5813 61.408 22.88C61.5573 23.1787 61.632 23.36 61.632 23.424C59.3493 23.424 58.208 22.4533 58.208 20.512C58.208 19.1893 58.7093 17.8667 59.712 16.544C60.736 15.2 62.0373 14.112 63.616 13.28C65.216 12.4267 66.8053 12 68.384 12C69.1733 12 69.984 12.1493 70.816 12.448L70.08 29.312L77.12 12.448H81.728L78.368 36H73.76L75.808 21.632L69.792 36H65.408L66.048 21.568L60.704 36H58.144L66.272 14.016ZM86.1795 44C85.1768 44 84.2915 43.6693 83.5235 43.008C82.7768 42.368 82.4035 41.5467 82.4035 40.544C82.4035 39.6053 82.6382 38.8373 83.1075 38.24C83.5768 37.6427 84.1848 37.1733 84.9315 36.832C85.6782 36.4907 86.6808 36.128 87.9395 35.744L88.2595 34.336C87.1715 35.5733 85.8702 36.192 84.3555 36.192C83.3315 36.192 82.4995 35.872 81.8595 35.232C81.2408 34.592 80.9315 33.632 80.9315 32.352C80.9315 31.8187 81.0168 31.1253 81.1875 30.272L83.3635 20H87.9715L85.6675 30.88C85.6035 31.136 85.5715 31.4027 85.5715 31.68C85.5715 32.6187 85.8915 33.088 86.5315 33.088C87.1288 33.088 87.6408 32.8427 88.0675 32.352C88.4942 31.84 88.8355 31.1467 89.0915 30.272L91.2675 20H95.9075L92.0035 38.56C91.5768 40.608 90.8195 42.0267 89.7315 42.816C88.6648 43.6053 87.4808 44 86.1795 44ZM85.4435 41.152C85.8275 41.152 86.1902 40.9493 86.5315 40.544C86.8728 40.16 87.1395 39.5307 87.3315 38.656L87.7155 36.768C86.5848 37.152 85.7102 37.6 85.0915 38.112C84.4728 38.624 84.1635 39.2853 84.1635 40.096C84.1635 40.352 84.2915 40.5867 84.5475 40.8C84.8035 41.0347 85.1022 41.152 85.4435 41.152ZM113.794 44C112.834 44 111.885 43.7227 110.946 43.168C110.029 42.6347 108.856 41.8027 107.426 40.672C106.36 39.8187 105.442 39.1253 104.674 38.592C103.928 38.08 103.106 37.6427 102.21 37.28C101.336 36.9173 100.44 36.736 99.5223 36.736C99.2023 36.736 98.9569 36.7467 98.7863 36.768L103.554 14.592C102.125 15.168 101.016 16.0533 100.226 17.248C99.4583 18.4213 99.0743 19.8613 99.0743 21.568C99.0743 22.3573 99.1489 22.912 99.2983 23.232C99.4476 23.5307 99.5223 23.7013 99.5223 23.744C98.3703 23.744 97.5063 23.5093 96.9303 23.04C96.3756 22.5493 96.0983 21.7493 96.0983 20.64C96.0983 19.2747 96.6529 17.952 97.7623 16.672C98.8929 15.3707 100.333 14.3253 102.082 13.536C103.832 12.7253 105.581 12.32 107.33 12.32C107.629 12.32 108.056 12.3413 108.61 12.384L103.682 35.36C104.28 35.5093 104.888 35.7227 105.506 36C106.146 36.2987 106.914 36.6933 107.81 37.184C109.197 37.9307 110.381 38.496 111.362 38.88C112.344 39.2853 113.368 39.488 114.434 39.488C115.394 39.488 116.29 39.3173 117.122 38.976C116.952 40.5333 116.568 41.76 115.97 42.656C115.394 43.552 114.669 44 113.794 44ZM111.871 36.192C110.655 36.192 109.642 35.776 108.831 34.944C108.021 34.112 107.615 32.8107 107.615 31.04C107.615 29.4613 107.925 27.808 108.543 26.08C109.183 24.3307 110.122 22.8587 111.359 21.664C112.618 20.448 114.111 19.84 115.839 19.84C116.714 19.84 117.365 19.9893 117.791 20.288C118.218 20.5867 118.431 20.9813 118.431 21.472V21.696L118.783 20H123.391L121.087 30.88C121.002 31.2 120.959 31.5413 120.959 31.904C120.959 32.8213 121.397 33.28 122.271 33.28C122.869 33.28 123.381 33.0027 123.807 32.448C124.255 31.8933 124.607 31.168 124.863 30.272H126.207C125.418 32.576 124.437 34.144 123.263 34.976C122.111 35.7867 120.949 36.192 119.775 36.192C118.879 36.192 118.154 35.9467 117.599 35.456C117.066 34.944 116.746 34.208 116.639 33.248C116.021 34.1227 115.327 34.8373 114.559 35.392C113.813 35.9253 112.917 36.192 111.871 36.192ZM113.951 33.088C114.485 33.088 115.007 32.8427 115.519 32.352C116.053 31.84 116.415 31.1467 116.607 30.272L118.143 23.04C118.143 22.7627 118.037 22.496 117.823 22.24C117.61 21.9627 117.279 21.824 116.831 21.824C115.978 21.824 115.21 22.3253 114.527 23.328C113.845 24.3093 113.311 25.504 112.927 26.912C112.543 28.2987 112.351 29.5253 112.351 30.592C112.351 31.6587 112.501 32.3413 112.799 32.64C113.119 32.9387 113.503 33.088 113.951 33.088ZM128.043 36.192C127.019 36.192 126.187 35.872 125.547 35.232C124.928 34.592 124.619 33.632 124.619 32.352C124.619 31.8187 124.704 31.1253 124.875 30.272L127.051 20H131.659L129.355 30.88C129.291 31.2 129.259 31.4987 129.259 31.776C129.259 32.6507 129.579 33.088 130.219 33.088C130.816 33.088 131.328 32.8427 131.755 32.352C132.182 31.84 132.523 31.1467 132.779 30.272L134.955 20H139.563L137.259 30.88C137.174 31.2 137.131 31.5413 137.131 31.904C137.131 32.3307 137.227 32.64 137.419 32.832C137.632 33.0027 137.974 33.088 138.443 33.088C139.04 33.088 139.552 32.832 139.979 32.32C140.427 31.808 140.779 31.1253 141.035 30.272H142.379C141.59 32.576 140.608 34.144 139.435 34.976C138.283 35.7867 137.12 36.192 135.947 36.192C135.03 36.192 134.294 35.936 133.739 35.424C133.206 34.912 132.886 34.1547 132.779 33.152C132.054 34.3253 131.286 35.1253 130.475 35.552C129.686 35.9787 128.875 36.192 128.043 36.192ZM152.583 36.192C151.282 36.192 150.322 35.8507 149.703 35.168C149.106 34.464 148.807 33.6 148.807 32.576C148.807 32.128 148.861 31.6267 148.967 31.072C149.074 30.496 149.181 29.9413 149.287 29.408C149.415 28.8747 149.501 28.5333 149.543 28.384C149.714 27.6373 149.874 26.9013 150.023 26.176C150.173 25.4507 150.247 24.864 150.247 24.416C150.247 23.328 149.863 22.784 149.095 22.784C148.541 22.784 148.05 23.0613 147.623 23.616C147.197 24.1493 146.855 24.8533 146.599 25.728L144.423 36H139.815L143.207 20H147.815L147.463 21.664C148.53 20.4693 149.778 19.872 151.207 19.872C152.295 19.872 153.159 20.1707 153.799 20.768C154.439 21.3653 154.759 22.272 154.759 23.488C154.759 24.1067 154.685 24.8 154.535 25.568C154.386 26.3147 154.173 27.232 153.895 28.32C153.725 28.9813 153.565 29.632 153.415 30.272C153.287 30.8907 153.223 31.3813 153.223 31.744C153.223 32.1707 153.319 32.5013 153.511 32.736C153.703 32.9707 154.034 33.088 154.503 33.088C155.143 33.088 155.655 32.864 156.039 32.416C156.423 31.9467 156.807 31.232 157.191 30.272H158.535C157.746 32.6187 156.829 34.1973 155.783 35.008C154.759 35.7973 153.693 36.192 152.583 36.192ZM161.028 36.192C159.812 36.192 158.798 35.776 157.988 34.944C157.177 34.112 156.771 32.8107 156.771 31.04C156.771 29.4613 157.081 27.808 157.7 26.08C158.34 24.3307 159.278 22.8587 160.516 21.664C161.774 20.448 163.268 19.84 164.996 19.84C165.87 19.84 166.521 19.9893 166.948 20.288C167.374 20.5867 167.588 20.9813 167.588 21.472V21.6L169.156 14.24L173.892 13.6L170.212 30.88C170.126 31.2 170.084 31.5413 170.084 31.904C170.084 32.3307 170.18 32.64 170.372 32.832C170.585 33.0027 170.926 33.088 171.396 33.088C171.993 33.088 172.505 32.832 172.932 32.32C173.38 31.808 173.732 31.1253 173.988 30.272H175.332C174.03 34.0907 171.886 36 168.9 36C168.025 36 167.31 35.7653 166.756 35.296C166.222 34.8267 165.892 34.144 165.764 33.248C165.209 34.1013 164.537 34.8053 163.748 35.36C162.98 35.9147 162.073 36.192 161.028 36.192ZM163.108 33.088C163.62 33.088 164.132 32.8533 164.644 32.384C165.177 31.9147 165.54 31.264 165.732 30.432V30.272L167.3 22.944C167.108 22.1973 166.67 21.824 165.988 21.824C165.134 21.824 164.366 22.3253 163.684 23.328C163.001 24.3093 162.468 25.504 162.084 26.912C161.7 28.2987 161.508 29.5253 161.508 30.592C161.508 31.6587 161.657 32.3413 161.956 32.64C162.276 32.9387 162.66 33.088 163.108 33.088ZM176.176 20H180.784L180.368 21.984C181.093 21.344 181.744 20.8533 182.32 20.512C182.917 20.1707 183.557 20 184.24 20C184.923 20 185.456 20.2347 185.84 20.704C186.245 21.1733 186.448 21.7387 186.448 22.4C186.448 23.0187 186.245 23.5627 185.84 24.032C185.435 24.5013 184.869 24.736 184.144 24.736C183.675 24.736 183.355 24.6293 183.184 24.416C183.035 24.1813 182.917 23.8507 182.832 23.424C182.768 23.1467 182.704 22.944 182.64 22.816C182.576 22.688 182.459 22.624 182.288 22.624C181.84 22.624 181.456 22.72 181.136 22.912C180.837 23.0827 180.443 23.392 179.952 23.84L177.392 36H172.784L176.176 20ZM191.023 44C190.021 44 189.135 43.6693 188.367 43.008C187.621 42.368 187.247 41.5467 187.247 40.544C187.247 39.6053 187.482 38.8373 187.951 38.24C188.421 37.6427 189.029 37.1733 189.775 36.832C190.522 36.4907 191.525 36.128 192.783 35.744L193.103 34.336C192.015 35.5733 190.714 36.192 189.199 36.192C188.175 36.192 187.343 35.872 186.703 35.232C186.085 34.592 185.775 33.632 185.775 32.352C185.775 31.8187 185.861 31.1253 186.031 30.272L188.207 20H192.815L190.511 30.88C190.447 31.136 190.415 31.4027 190.415 31.68C190.415 32.6187 190.735 33.088 191.375 33.088C191.973 33.088 192.485 32.8427 192.911 32.352C193.338 31.84 193.679 31.1467 193.935 30.272L196.111 20H200.751L196.847 38.56C196.421 40.608 195.663 42.0267 194.575 42.816C193.509 43.6053 192.325 44 191.023 44ZM190.287 41.152C190.671 41.152 191.034 40.9493 191.375 40.544C191.717 40.16 191.983 39.5307 192.175 38.656L192.559 36.768C191.429 37.152 190.554 37.6 189.935 38.112C189.317 38.624 189.007 39.2853 189.007 40.096C189.007 40.352 189.135 40.5867 189.391 40.8C189.647 41.0347 189.946 41.152 190.287 41.152Z" fill="#272E67"/>
<defs>
<clipPath id="clip0_9_3">
<rect width="48" height="48" fill="white"/>
</clipPath>
</defs>
</svg>
